<svg xmlns="http://www.w3.org/2000/svg" viewBox="0 0 500 500"><g id="freepik--Screen--inject-90"><rect x="148.68" y="32.77" width="214.83" height="442.28" rx="17.29" style="fill:none;stroke:#263238;stroke-linecap:round;stroke-linejoin:round"></rect><path d="M290.2,53.92H222a11.3,11.3,0,0,1-10.16-6.36l-7.2-14.79H307.56l-7.2,14.79A11.3,11.3,0,0,1,290.2,53.92Z" style="fill:none;stroke:#263238;stroke-linecap:round;stroke-linejoin:round"></path></g><g id="freepik--Codes--inject-90"><path d="M16.25,367.2h-3.9a1,1,0,0,1,0-1.92h3.9a1,1,0,1,1,0,1.92Zm1,3.5a1,1,0,0,0-1-1h-3.9a1,1,0,0,0,0,1.92h3.9A1,1,0,0,0,17.21,370.7Zm0,4.46a1,1,0,0,0-1-1h-3.9a1,1,0,0,0,0,1.92h3.9A1,1,0,0,0,17.21,375.16Zm0,4.46a1,1,0,0,0-1-1h-3.9a1,1,0,0,0,0,1.93h3.9A1,1,0,0,0,17.21,379.62Zm0,4.46a1,1,0,0,0-1-1h-3.9a1,1,0,0,0,0,1.93h3.9A1,1,0,0,0,17.21,384.08Zm0,4.46a1,1,0,0,0-1-1h-3.9a1,1,0,0,0,0,1.93h3.9A1,1,0,0,0,17.21,388.54Zm0,4.47a1,1,0,0,0-1-1h-3.9a1,1,0,0,0,0,1.93h3.9A1,1,0,0,0,17.21,393Zm0,4.46a1,1,0,0,0-1-1h-3.9a1,1,0,0,0,0,1.93h3.9A1,1,0,0,0,17.21,397.47Zm14.61-31.23a1,1,0,0,0-1-1H20.61a1,1,0,0,0,0,1.92H30.85A1,1,0,0,0,31.82,366.24Zm0,4.46a1,1,0,0,0-1-1H20.61a1,1,0,0,0,0,1.92H30.85A1,1,0,0,0,31.82,370.7Zm0,4.46a1,1,0,0,0-1-1H20.61a1,1,0,0,0,0,1.92H30.85A1,1,0,0,0,31.82,375.16Zm0,4.46a1,1,0,0,0-1-1H20.61a1,1,0,0,0,0,1.93H30.85A1,1,0,0,0,31.82,379.62Zm0,4.46a1,1,0,0,0-1-1H20.61a1,1,0,0,0,0,1.93H30.85A1,1,0,0,0,31.82,384.08Zm12.26,4.46a1,1,0,0,0-1-1H32.87a1,1,0,0,0,0,1.93H43.12A1,1,0,0,0,44.08,388.54Zm0,4.47a1,1,0,0,0-1-1H32.87a1,1,0,0,0,0,1.93H43.12A1,1,0,0,0,44.08,393Zm0,4.46a1,1,0,0,0-1-1H32.87a1,1,0,0,0,0,1.93H43.12A1,1,0,0,0,44.08,397.47Zm-7.76-31.23a1.12,1.12,0,0,0-2.23,0,1.12,1.12,0,1,0,2.23,0Zm3.35,0a1.12,1.12,0,1,0-1.11,1.12A1.11,1.11,0,0,0,39.67,366.24Zm3.35,0a1.12,1.12,0,1,0-1.12,1.12A1.11,1.11,0,0,0,43,366.24Zm3.34,0a1.12,1.12,0,1,0-1.11,1.12A1.11,1.11,0,0,0,46.36,366.24Zm3.35,0a1.12,1.12,0,1,0-1.12,1.12A1.11,1.11,0,0,0,49.71,366.24Zm3.34,0a1.12,1.12,0,1,0-1.11,1.12A1.11,1.11,0,0,0,53.05,366.24Zm-16.73,8.92a1.12,1.12,0,1,0-1.11,1.12A1.11,1.11,0,0,0,36.32,375.16Zm3.35,0a1.12,1.12,0,1,0-1.11,1.12A1.11,1.11,0,0,0,39.67,375.16Zm3.35,0a1.12,1.12,0,1,0-1.12,1.12A1.12,1.12,0,0,0,43,375.16Zm3.34,0a1.12,1.12,0,1,0-1.11,1.12A1.11,1.11,0,0,0,46.36,375.16Zm3.35,0a1.12,1.12,0,1,0-1.12,1.12A1.12,1.12,0,0,0,49.71,375.16Zm3.34,0a1.12,1.12,0,1,0-1.11,1.12A1.11,1.11,0,0,0,53.05,375.16ZM47.76,388a1.12,1.12,0,1,0-1.12,1.11A1.12,1.12,0,0,0,47.76,388Zm3.34,0A1.12,1.12,0,1,0,50,389.1,1.12,1.12,0,0,0,51.1,388Zm3.35,0a1.12,1.12,0,1,0-1.12,1.11A1.12,1.12,0,0,0,54.45,388Zm3.34,0a1.12,1.12,0,1,0-1.11,1.11A1.12,1.12,0,0,0,57.79,388Zm3.35,0A1.12,1.12,0,1,0,60,389.1,1.12,1.12,0,0,0,61.14,388Zm3.34,0a1.12,1.12,0,1,0-1.11,1.11A1.12,1.12,0,0,0,64.48,388Zm-16.72,9.2a1.12,1.12,0,1,0-1.12,1.11A1.12,1.12,0,0,0,47.76,397.19Zm3.34,0A1.12,1.12,0,1,0,50,398.3,1.12,1.12,0,0,0,51.1,397.19Zm3.35,0a1.12,1.12,0,1,0-1.12,1.11A1.12,1.12,0,0,0,54.45,397.19Zm3.34,0a1.12,1.12,0,1,0-1.11,1.11A1.12,1.12,0,0,0,57.79,397.19Zm3.35,0A1.12,1.12,0,1,0,60,398.3,1.12,1.12,0,0,0,61.14,397.19Zm3.34,0a1.12,1.12,0,1,0-1.11,1.11A1.12,1.12,0,0,0,64.48,397.19Z" style="fill:#14B8A6"></path><path d="M16.25,402.9h-3.9a1,1,0,0,1,0-1.93h3.9a1,1,0,0,1,0,1.93Zm1,3.5a1,1,0,0,0-1-1h-3.9a1,1,0,0,0,0,1.93h3.9A1,1,0,0,0,17.21,406.4Zm0,4.46a1,1,0,0,0-1-1h-3.9a1,1,0,0,0,0,1.93h3.9A1,1,0,0,0,17.21,410.86Zm0,4.46a1,1,0,0,0-1-1h-3.9a1,1,0,0,0,0,1.92h3.9A1,1,0,0,0,17.21,415.32Zm0,4.46a1,1,0,0,0-1-1h-3.9a1,1,0,0,0,0,1.92h3.9A1,1,0,0,0,17.21,419.78Zm0,4.46a1,1,0,0,0-1-1h-3.9a1,1,0,0,0,0,1.92h3.9A1,1,0,0,0,17.21,424.24Zm0,4.46a1,1,0,0,0-1-1h-3.9a1,1,0,0,0,0,1.92h3.9A1,1,0,0,0,17.21,428.7Zm0,4.46a1,1,0,0,0-1-1h-3.9a1,1,0,0,0,0,1.92h3.9A1,1,0,0,0,17.21,433.16Zm14.61-31.22a1,1,0,0,0-1-1H20.61a1,1,0,0,0,0,1.93H30.85A1,1,0,0,0,31.82,401.94Zm0,4.46a1,1,0,0,0-1-1H20.61a1,1,0,0,0,0,1.93H30.85A1,1,0,0,0,31.82,406.4Zm0,4.46a1,1,0,0,0-1-1H20.61a1,1,0,0,0,0,1.93H30.85A1,1,0,0,0,31.82,410.86Zm0,4.46a1,1,0,0,0-1-1H20.61a1,1,0,0,0,0,1.92H30.85A1,1,0,0,0,31.82,415.32Zm0,4.46a1,1,0,0,0-1-1H20.61a1,1,0,0,0,0,1.92H30.85A1,1,0,0,0,31.82,419.78Zm12.26,4.46a1,1,0,0,0-1-1H32.87a1,1,0,0,0,0,1.92H43.12A1,1,0,0,0,44.08,424.24Zm0,4.46a1,1,0,0,0-1-1H32.87a1,1,0,0,0,0,1.92H43.12A1,1,0,0,0,44.08,428.7Zm0,4.46a1,1,0,0,0-1-1H32.87a1,1,0,0,0,0,1.92H43.12A1,1,0,0,0,44.08,433.16Zm-7.76-31.22a1.12,1.12,0,1,0-1.11,1.11A1.11,1.11,0,0,0,36.32,401.94Zm3.35,0a1.12,1.12,0,1,0-1.11,1.11A1.12,1.12,0,0,0,39.67,401.94Zm3.35,0a1.12,1.12,0,1,0-1.12,1.11A1.12,1.12,0,0,0,43,401.94Zm3.34,0a1.12,1.12,0,1,0-1.11,1.11A1.12,1.12,0,0,0,46.36,401.94Zm3.35,0a1.12,1.12,0,1,0-1.12,1.11A1.12,1.12,0,0,0,49.71,401.94Zm3.34,0a1.12,1.12,0,1,0-1.11,1.11A1.12,1.12,0,0,0,53.05,401.94Zm-16.73,8.92A1.12,1.12,0,1,0,35.21,412,1.11,1.11,0,0,0,36.32,410.86Zm3.35,0A1.12,1.12,0,1,0,38.56,412,1.12,1.12,0,0,0,39.67,410.86Zm3.35,0A1.12,1.12,0,1,0,41.9,412,1.12,1.12,0,0,0,43,410.86Zm3.34,0A1.12,1.12,0,1,0,45.25,412,1.12,1.12,0,0,0,46.36,410.86Zm3.35,0A1.12,1.12,0,1,0,48.59,412,1.12,1.12,0,0,0,49.71,410.86Zm3.34,0A1.12,1.12,0,1,0,51.94,412,1.12,1.12,0,0,0,53.05,410.86Zm-5.29,12.82a1.12,1.12,0,1,0-1.12,1.12A1.12,1.12,0,0,0,47.76,423.68Zm3.34,0A1.12,1.12,0,1,0,50,424.8,1.11,1.11,0,0,0,51.1,423.68Zm3.35,0a1.12,1.12,0,1,0-1.12,1.12A1.12,1.12,0,0,0,54.45,423.68Zm3.34,0a1.12,1.12,0,1,0-1.11,1.12A1.11,1.11,0,0,0,57.79,423.68Zm3.35,0A1.12,1.12,0,1,0,60,424.8,1.12,1.12,0,0,0,61.14,423.68Zm3.34,0a1.12,1.12,0,1,0-1.11,1.12A1.11,1.11,0,0,0,64.48,423.68Zm-16.72,9.2A1.12,1.12,0,1,0,46.64,434,1.12,1.12,0,0,0,47.76,432.88Zm3.34,0A1.12,1.12,0,1,0,50,434,1.11,1.11,0,0,0,51.1,432.88Zm3.35,0A1.12,1.12,0,1,0,53.33,434,1.12,1.12,0,0,0,54.45,432.88Zm3.34,0A1.12,1.12,0,1,0,56.68,434,1.11,1.11,0,0,0,57.79,432.88Zm3.35,0A1.12,1.12,0,1,0,60,434,1.12,1.12,0,0,0,61.14,432.88Zm3.34,0A1.12,1.12,0,1,0,63.37,434,1.11,1.11,0,0,0,64.48,432.88Z" style="fill:#14B8A6"></path><path d="M16.25,439.46h-3.9a1,1,0,0,1,0-1.93h3.9a1,1,0,0,1,0,1.93Zm1,3.49a1,1,0,0,0-1-1h-3.9a1,1,0,0,0,0,1.93h3.9A1,1,0,0,0,17.21,443Zm0,4.46a1,1,0,0,0-1-1h-3.9a1,1,0,0,0,0,1.93h3.9A1,1,0,0,0,17.21,447.41Zm0,4.46a1,1,0,0,0-1-1h-3.9a1,1,0,0,0,0,1.93h3.9A1,1,0,0,0,17.21,451.87Zm0,4.47a1,1,0,0,0-1-1h-3.9a1,1,0,0,0,0,1.93h3.9A1,1,0,0,0,17.21,456.34Zm0,4.46a1,1,0,0,0-1-1h-3.9a1,1,0,0,0,0,1.93h3.9A1,1,0,0,0,17.21,460.8Zm0,4.46a1,1,0,0,0-1-1h-3.9a1,1,0,0,0,0,1.92h3.9A1,1,0,0,0,17.21,465.26Zm0,4.46a1,1,0,0,0-1-1h-3.9a1,1,0,0,0,0,1.92h3.9A1,1,0,0,0,17.21,469.72Zm14.61-31.23a1,1,0,0,0-1-1H20.61a1,1,0,0,0,0,1.93H30.85A1,1,0,0,0,31.82,438.49Zm0,4.46a1,1,0,0,0-1-1H20.61a1,1,0,0,0,0,1.93H30.85A1,1,0,0,0,31.82,443Zm0,4.46a1,1,0,0,0-1-1H20.61a1,1,0,0,0,0,1.93H30.85A1,1,0,0,0,31.82,447.41Zm0,4.46a1,1,0,0,0-1-1H20.61a1,1,0,0,0,0,1.93H30.85A1,1,0,0,0,31.82,451.87Zm0,4.47a1,1,0,0,0-1-1H20.61a1,1,0,0,0,0,1.93H30.85A1,1,0,0,0,31.82,456.34Zm12.26,4.46a1,1,0,0,0-1-1H32.87a1,1,0,0,0,0,1.93H43.12A1,1,0,0,0,44.08,460.8Zm0,4.46a1,1,0,0,0-1-1H32.87a1,1,0,0,0,0,1.92H43.12A1,1,0,0,0,44.08,465.26Zm0,4.46a1,1,0,0,0-1-1H32.87a1,1,0,0,0,0,1.92H43.12A1,1,0,0,0,44.08,469.72Zm-7.76-31.23a1.12,1.12,0,1,0-1.11,1.12A1.11,1.11,0,0,0,36.32,438.49Zm3.35,0a1.12,1.12,0,1,0-1.11,1.12A1.11,1.11,0,0,0,39.67,438.49Zm3.35,0a1.12,1.12,0,1,0-1.12,1.12A1.12,1.12,0,0,0,43,438.49Zm3.34,0a1.12,1.12,0,1,0-1.11,1.12A1.11,1.11,0,0,0,46.36,438.49Zm3.35,0a1.12,1.12,0,1,0-1.12,1.12A1.12,1.12,0,0,0,49.71,438.49Zm3.34,0a1.12,1.12,0,1,0-1.11,1.12A1.11,1.11,0,0,0,53.05,438.49Zm-16.73,8.92a1.12,1.12,0,1,0-1.11,1.12A1.11,1.11,0,0,0,36.32,447.41Zm3.35,0a1.12,1.12,0,1,0-1.11,1.12A1.11,1.11,0,0,0,39.67,447.41Zm3.35,0a1.12,1.12,0,1,0-1.12,1.12A1.12,1.12,0,0,0,43,447.41Zm3.34,0a1.12,1.12,0,1,0-1.11,1.12A1.11,1.11,0,0,0,46.36,447.41Zm3.35,0a1.12,1.12,0,1,0-1.12,1.12A1.12,1.12,0,0,0,49.71,447.41Zm3.34,0a1.12,1.12,0,1,0-1.11,1.12A1.11,1.11,0,0,0,53.05,447.41Zm-5.29,12.83a1.12,1.12,0,1,0-1.12,1.11A1.12,1.12,0,0,0,47.76,460.24Zm3.34,0A1.12,1.12,0,1,0,50,461.35,1.12,1.12,0,0,0,51.1,460.24Zm3.35,0a1.12,1.12,0,1,0-1.12,1.11A1.12,1.12,0,0,0,54.45,460.24Zm3.34,0a1.12,1.12,0,1,0-1.11,1.11A1.12,1.12,0,0,0,57.79,460.24Zm3.35,0A1.12,1.12,0,1,0,60,461.35,1.12,1.12,0,0,0,61.14,460.24Zm3.34,0a1.12,1.12,0,1,0-1.11,1.11A1.12,1.12,0,0,0,64.48,460.24Zm-16.72,9.2a1.12,1.12,0,1,0-2.23,0,1.12,1.12,0,0,0,2.23,0Zm3.34,0A1.12,1.12,0,1,0,50,470.55,1.12,1.12,0,0,0,51.1,469.44Zm3.35,0a1.12,1.12,0,1,0-1.12,1.11A1.12,1.12,0,0,0,54.45,469.44Zm3.34,0a1.12,1.12,0,1,0-1.11,1.11A1.12,1.12,0,0,0,57.79,469.44Zm3.35,0A1.12,1.12,0,1,0,60,470.55,1.12,1.12,0,0,0,61.14,469.44Zm3.34,0a1.12,1.12,0,1,0-1.11,1.11A1.12,1.12,0,0,0,64.48,469.44Z" style="fill:#14B8A6"></path><path d="M76.18,367.2H72.27a1,1,0,0,1,0-1.92h3.91a1,1,0,1,1,0,1.92Zm1,3.5a1,1,0,0,0-1-1H72.27a1,1,0,0,0,0,1.92h3.91A1,1,0,0,0,77.14,370.7Zm0,4.46a1,1,0,0,0-1-1H72.27a1,1,0,0,0,0,1.92h3.91A1,1,0,0,0,77.14,375.16Zm0,4.46a1,1,0,0,0-1-1H72.27a1,1,0,0,0,0,1.93h3.91A1,1,0,0,0,77.14,379.62Zm0,4.46a1,1,0,0,0-1-1H72.27a1,1,0,0,0,0,1.93h3.91A1,1,0,0,0,77.14,384.08Zm0,4.46a1,1,0,0,0-1-1H72.27a1,1,0,0,0,0,1.93h3.91A1,1,0,0,0,77.14,388.54Zm0,4.47a1,1,0,0,0-1-1H72.27a1,1,0,0,0,0,1.93h3.91A1,1,0,0,0,77.14,393Zm0,4.46a1,1,0,0,0-1-1H72.27a1,1,0,0,0,0,1.93h3.91A1,1,0,0,0,77.14,397.47Zm14.6-31.23a1,1,0,0,0-1-1H80.53a1,1,0,0,0,0,1.92H90.78A1,1,0,0,0,91.74,366.24Zm0,4.46a1,1,0,0,0-1-1H80.53a1,1,0,1,0,0,1.92H90.78A1,1,0,0,0,91.74,370.7Zm0,4.46a1,1,0,0,0-1-1H80.53a1,1,0,1,0,0,1.92H90.78A1,1,0,0,0,91.74,375.16Zm0,4.46a1,1,0,0,0-1-1H80.53a1,1,0,0,0,0,1.93H90.78A1,1,0,0,0,91.74,379.62Zm0,4.46a1,1,0,0,0-1-1H80.53a1,1,0,0,0,0,1.93H90.78A1,1,0,0,0,91.74,384.08ZM104,388.54a1,1,0,0,0-1-1H92.8a1,1,0,0,0,0,1.93h10.25A1,1,0,0,0,104,388.54Zm0,4.47a1,1,0,0,0-1-1H92.8a1,1,0,0,0,0,1.93h10.25A1,1,0,0,0,104,393Zm0,4.46a1,1,0,0,0-1-1H92.8a1,1,0,0,0,0,1.93h10.25A1,1,0,0,0,104,397.47Zm-7.76-31.23a1.12,1.12,0,1,0-1.12,1.12A1.11,1.11,0,0,0,96.25,366.24Zm3.35,0a1.12,1.12,0,1,0-1.12,1.12A1.11,1.11,0,0,0,99.6,366.24Zm3.34,0a1.12,1.12,0,1,0-1.11,1.12A1.11,1.11,0,0,0,102.94,366.24Zm3.35,0a1.12,1.12,0,1,0-1.12,1.12A1.11,1.11,0,0,0,106.29,366.24Zm3.34,0a1.12,1.12,0,1,0-1.11,1.12A1.11,1.11,0,0,0,109.63,366.24Zm3.35,0a1.12,1.12,0,1,0-1.12,1.12A1.11,1.11,0,0,0,113,366.24Zm-16.73,8.92a1.12,1.12,0,1,0-1.12,1.12A1.12,1.12,0,0,0,96.25,375.16Zm3.35,0a1.12,1.12,0,1,0-1.12,1.12A1.12,1.12,0,0,0,99.6,375.16Zm3.34,0a1.12,1.12,0,1,0-1.11,1.12A1.11,1.11,0,0,0,102.94,375.16Zm3.35,0a1.12,1.12,0,1,0-1.12,1.12A1.12,1.12,0,0,0,106.29,375.16Zm3.34,0a1.12,1.12,0,1,0-1.11,1.12A1.11,1.11,0,0,0,109.63,375.16Zm3.35,0a1.12,1.12,0,1,0-1.12,1.12A1.12,1.12,0,0,0,113,375.16ZM107.68,388a1.12,1.12,0,1,0-1.11,1.11A1.12,1.12,0,0,0,107.68,388Zm3.35,0a1.12,1.12,0,1,0-1.12,1.11A1.12,1.12,0,0,0,111,388Zm3.34,0a1.12,1.12,0,1,0-1.11,1.11A1.12,1.12,0,0,0,114.37,388Zm3.35,0a1.12,1.12,0,1,0-1.12,1.11A1.12,1.12,0,0,0,117.72,388Zm3.34,0A1.12,1.12,0,1,0,120,389.1,1.12,1.12,0,0,0,121.06,388Zm3.35,0a1.12,1.12,0,1,0-1.12,1.11A1.12,1.12,0,0,0,124.41,388Zm-16.73,9.2a1.12,1.12,0,1,0-1.11,1.11A1.12,1.12,0,0,0,107.68,397.19Zm3.35,0a1.12,1.12,0,1,0-1.12,1.11A1.12,1.12,0,0,0,111,397.19Zm3.34,0a1.12,1.12,0,1,0-1.11,1.11A1.12,1.12,0,0,0,114.37,397.19Zm3.35,0a1.12,1.12,0,1,0-1.12,1.11A1.12,1.12,0,0,0,117.72,397.19Zm3.34,0A1.12,1.12,0,1,0,120,398.3,1.12,1.12,0,0,0,121.06,397.19Zm3.35,0a1.12,1.12,0,1,0-1.12,1.11A1.12,1.12,0,0,0,124.41,397.19Z" style="fill:#14B8A6"></path><path d="M76.18,403.76H72.27a1,1,0,0,1,0-1.92h3.91a1,1,0,1,1,0,1.92Zm1,3.5a1,1,0,0,0-1-1H72.27a1,1,0,0,0,0,1.92h3.91A1,1,0,0,0,77.14,407.26Zm0,4.46a1,1,0,0,0-1-1H72.27a1,1,0,0,0,0,1.92h3.91A1,1,0,0,0,77.14,411.72Zm0,4.46a1,1,0,0,0-1-1H72.27a1,1,0,0,0,0,1.92h3.91A1,1,0,0,0,77.14,416.18Zm0,4.46a1,1,0,0,0-1-1H72.27a1,1,0,0,0,0,1.92h3.91A1,1,0,0,0,77.14,420.64Zm0,4.46a1,1,0,0,0-1-1H72.27a1,1,0,0,0,0,1.92h3.91A1,1,0,0,0,77.14,425.1Zm0,4.46a1,1,0,0,0-1-1H72.27a1,1,0,0,0,0,1.92h3.91A1,1,0,0,0,77.14,429.56Zm0,4.46a1,1,0,0,0-1-1H72.27a1,1,0,0,0,0,1.93h3.91A1,1,0,0,0,77.14,434Zm14.6-31.22a1,1,0,0,0-1-1H80.53a1,1,0,1,0,0,1.92H90.78A1,1,0,0,0,91.74,402.8Zm0,4.46a1,1,0,0,0-1-1H80.53a1,1,0,0,0,0,1.92H90.78A1,1,0,0,0,91.74,407.26Zm0,4.46a1,1,0,0,0-1-1H80.53a1,1,0,0,0,0,1.92H90.78A1,1,0,0,0,91.74,411.72Zm0,4.46a1,1,0,0,0-1-1H80.53a1,1,0,1,0,0,1.92H90.78A1,1,0,0,0,91.74,416.18Zm0,4.46a1,1,0,0,0-1-1H80.53a1,1,0,0,0,0,1.92H90.78A1,1,0,0,0,91.74,420.64ZM104,425.1a1,1,0,0,0-1-1H92.8a1,1,0,0,0,0,1.92h10.25A1,1,0,0,0,104,425.1Zm0,4.46a1,1,0,0,0-1-1H92.8a1,1,0,0,0,0,1.92h10.25A1,1,0,0,0,104,429.56Zm0,4.46a1,1,0,0,0-1-1H92.8a1,1,0,0,0,0,1.93h10.25A1,1,0,0,0,104,434ZM96.25,402.8a1.12,1.12,0,1,0-1.12,1.11A1.12,1.12,0,0,0,96.25,402.8Zm3.35,0a1.12,1.12,0,1,0-1.12,1.11A1.12,1.12,0,0,0,99.6,402.8Zm3.34,0a1.12,1.12,0,1,0-1.11,1.11A1.12,1.12,0,0,0,102.94,402.8Zm3.35,0a1.12,1.12,0,1,0-1.12,1.11A1.12,1.12,0,0,0,106.29,402.8Zm3.34,0a1.12,1.12,0,1,0-1.11,1.11A1.12,1.12,0,0,0,109.63,402.8Zm3.35,0a1.12,1.12,0,1,0-1.12,1.11A1.12,1.12,0,0,0,113,402.8Zm-16.73,8.92a1.12,1.12,0,1,0-1.12,1.11A1.12,1.12,0,0,0,96.25,411.72Zm3.35,0a1.12,1.12,0,1,0-2.23,0,1.12,1.12,0,0,0,2.23,0Zm3.34,0a1.12,1.12,0,1,0-1.11,1.11A1.12,1.12,0,0,0,102.94,411.72Zm3.35,0a1.12,1.12,0,1,0-1.12,1.11A1.12,1.12,0,0,0,106.29,411.72Zm3.34,0a1.12,1.12,0,1,0-1.11,1.11A1.12,1.12,0,0,0,109.63,411.72Zm3.35,0a1.12,1.12,0,1,0-1.12,1.11A1.12,1.12,0,0,0,113,411.72Zm-5.3,12.82a1.12,1.12,0,1,0-1.11,1.12A1.11,1.11,0,0,0,107.68,424.54Zm3.35,0a1.12,1.12,0,1,0-1.12,1.12A1.12,1.12,0,0,0,111,424.54Zm3.34,0a1.12,1.12,0,1,0-1.11,1.12A1.11,1.11,0,0,0,114.37,424.54Zm3.35,0a1.12,1.12,0,1,0-1.12,1.12A1.12,1.12,0,0,0,117.72,424.54Zm3.34,0a1.12,1.12,0,1,0-1.11,1.12A1.11,1.11,0,0,0,121.06,424.54Zm3.35,0a1.12,1.12,0,1,0-1.12,1.12A1.12,1.12,0,0,0,124.41,424.54Zm-16.73,9.2a1.12,1.12,0,1,0-1.11,1.12A1.11,1.11,0,0,0,107.68,433.74Zm3.35,0a1.12,1.12,0,1,0-1.12,1.12A1.12,1.12,0,0,0,111,433.74Zm3.34,0a1.12,1.12,0,1,0-1.11,1.12A1.11,1.11,0,0,0,114.37,433.74Zm3.35,0a1.12,1.12,0,1,0-1.12,1.12A1.12,1.12,0,0,0,117.72,433.74Zm3.34,0a1.12,1.12,0,1,0-1.11,1.12A1.11,1.11,0,0,0,121.06,433.74Zm3.35,0a1.12,1.12,0,1,0-1.12,1.12A1.12,1.12,0,0,0,124.41,433.74Z" style="fill:#14B8A6"></path><path d="M16.25,22.22h-3.9a1,1,0,0,1,0-1.92h3.9a1,1,0,1,1,0,1.92Zm1,3.5a1,1,0,0,0-1-1h-3.9a1,1,0,1,0,0,1.92h3.9A1,1,0,0,0,17.21,25.72Zm0,4.46a1,1,0,0,0-1-1h-3.9a1,1,0,0,0,0,1.93h3.9A1,1,0,0,0,17.21,30.18Zm0,4.46a1,1,0,0,0-1-1h-3.9a1,1,0,0,0,0,1.93h3.9A1,1,0,0,0,17.21,34.64Zm0,4.46a1,1,0,0,0-1-1h-3.9a1,1,0,0,0,0,1.93h3.9A1,1,0,0,0,17.21,39.1Zm0,4.47a1,1,0,0,0-1-1h-3.9a1,1,0,0,0,0,1.93h3.9A1,1,0,0,0,17.21,43.57Zm0,4.46a1,1,0,0,0-1-1h-3.9a1,1,0,0,0,0,1.93h3.9A1,1,0,0,0,17.21,48Zm0,4.46a1,1,0,0,0-1-1h-3.9a1,1,0,0,0,0,1.93h3.9A1,1,0,0,0,17.21,52.49ZM31.82,21.26a1,1,0,0,0-1-1H20.61a1,1,0,1,0,0,1.92H30.85A1,1,0,0,0,31.82,21.26Zm0,4.46a1,1,0,0,0-1-1H20.61a1,1,0,0,0,0,1.92H30.85A1,1,0,0,0,31.82,25.72Zm0,4.46a1,1,0,0,0-1-1H20.61a1,1,0,0,0,0,1.93H30.85A1,1,0,0,0,31.82,30.18Zm0,4.46a1,1,0,0,0-1-1H20.61a1,1,0,0,0,0,1.93H30.85A1,1,0,0,0,31.82,34.64Zm0,4.46a1,1,0,0,0-1-1H20.61a1,1,0,0,0,0,1.93H30.85A1,1,0,0,0,31.82,39.1Zm12.26,4.47a1,1,0,0,0-1-1H32.87a1,1,0,0,0,0,1.93H43.12A1,1,0,0,0,44.08,43.57Zm0,4.46a1,1,0,0,0-1-1H32.87a1,1,0,0,0,0,1.93H43.12A1,1,0,0,0,44.08,48Zm0,4.46a1,1,0,0,0-1-1H32.87a1,1,0,0,0,0,1.93H43.12A1,1,0,0,0,44.08,52.49ZM36.32,21.26a1.12,1.12,0,1,0-1.11,1.12A1.11,1.11,0,0,0,36.32,21.26Zm3.35,0a1.12,1.12,0,1,0-1.11,1.12A1.11,1.11,0,0,0,39.67,21.26Zm3.35,0a1.12,1.12,0,1,0-1.12,1.12A1.12,1.12,0,0,0,43,21.26Zm3.34,0a1.12,1.12,0,1,0-1.11,1.12A1.11,1.11,0,0,0,46.36,21.26Zm3.35,0a1.12,1.12,0,1,0-1.12,1.12A1.12,1.12,0,0,0,49.71,21.26Zm3.34,0a1.12,1.12,0,1,0-1.11,1.12A1.11,1.11,0,0,0,53.05,21.26ZM36.32,30.18a1.12,1.12,0,1,0-1.11,1.12A1.11,1.11,0,0,0,36.32,30.18Zm3.35,0a1.12,1.12,0,1,0-1.11,1.12A1.11,1.11,0,0,0,39.67,30.18Zm3.35,0A1.12,1.12,0,1,0,41.9,31.3,1.12,1.12,0,0,0,43,30.18Zm3.34,0a1.12,1.12,0,1,0-1.11,1.12A1.11,1.11,0,0,0,46.36,30.18Zm3.35,0a1.12,1.12,0,1,0-1.12,1.12A1.12,1.12,0,0,0,49.71,30.18Zm3.34,0a1.12,1.12,0,1,0-1.11,1.12A1.11,1.11,0,0,0,53.05,30.18ZM47.76,43a1.12,1.12,0,1,0-1.12,1.11A1.12,1.12,0,0,0,47.76,43Zm3.34,0A1.12,1.12,0,1,0,50,44.12,1.12,1.12,0,0,0,51.1,43Zm3.35,0a1.12,1.12,0,1,0-1.12,1.11A1.12,1.12,0,0,0,54.45,43Zm3.34,0a1.12,1.12,0,1,0-1.11,1.11A1.12,1.12,0,0,0,57.79,43Zm3.35,0A1.12,1.12,0,1,0,60,44.12,1.12,1.12,0,0,0,61.14,43Zm3.34,0a1.12,1.12,0,1,0-1.11,1.11A1.12,1.12,0,0,0,64.48,43Zm-16.72,9.2a1.12,1.12,0,1,0-1.12,1.11A1.12,1.12,0,0,0,47.76,52.21Zm3.34,0A1.12,1.12,0,1,0,50,53.32,1.12,1.12,0,0,0,51.1,52.21Zm3.35,0a1.12,1.12,0,1,0-1.12,1.11A1.12,1.12,0,0,0,54.45,52.21Zm3.34,0a1.12,1.12,0,1,0-1.11,1.11A1.12,1.12,0,0,0,57.79,52.21Zm3.35,0A1.12,1.12,0,1,0,60,53.32,1.12,1.12,0,0,0,61.14,52.21Zm3.34,0a1.12,1.12,0,1,0-1.11,1.11A1.12,1.12,0,0,0,64.48,52.21Z" style="fill:#14B8A6"></path><path d="M16.25,57.92h-3.9a1,1,0,0,1,0-1.93h3.9a1,1,0,0,1,0,1.93Zm1,3.5a1,1,0,0,0-1-1h-3.9a1,1,0,0,0,0,1.93h3.9A1,1,0,0,0,17.21,61.42Zm0,4.46a1,1,0,0,0-1-1h-3.9a1,1,0,0,0,0,1.92h3.9A1,1,0,0,0,17.21,65.88Zm0,4.46a1,1,0,0,0-1-1h-3.9a1,1,0,0,0,0,1.92h3.9A1,1,0,0,0,17.21,70.34Zm0,4.46a1,1,0,0,0-1-1h-3.9a1,1,0,0,0,0,1.92h3.9A1,1,0,0,0,17.21,74.8Zm0,4.46a1,1,0,0,0-1-1h-3.9a1,1,0,0,0,0,1.92h3.9A1,1,0,0,0,17.21,79.26Zm0,4.46a1,1,0,0,0-1-1h-3.9a1,1,0,0,0,0,1.92h3.9A1,1,0,0,0,17.21,83.72Zm0,4.46a1,1,0,0,0-1-1h-3.9a1,1,0,0,0,0,1.92h3.9A1,1,0,0,0,17.21,88.18ZM31.82,57a1,1,0,0,0-1-1H20.61a1,1,0,0,0,0,1.93H30.85A1,1,0,0,0,31.82,57Zm0,4.46a1,1,0,0,0-1-1H20.61a1,1,0,0,0,0,1.93H30.85A1,1,0,0,0,31.82,61.42Zm0,4.46a1,1,0,0,0-1-1H20.61a1,1,0,0,0,0,1.92H30.85A1,1,0,0,0,31.82,65.88Zm0,4.46a1,1,0,0,0-1-1H20.61a1,1,0,1,0,0,1.92H30.85A1,1,0,0,0,31.82,70.34Zm0,4.46a1,1,0,0,0-1-1H20.61a1,1,0,0,0,0,1.92H30.85A1,1,0,0,0,31.82,74.8Zm12.26,4.46a1,1,0,0,0-1-1H32.87a1,1,0,0,0,0,1.92H43.12A1,1,0,0,0,44.08,79.26Zm0,4.46a1,1,0,0,0-1-1H32.87a1,1,0,1,0,0,1.92H43.12A1,1,0,0,0,44.08,83.72Zm0,4.46a1,1,0,0,0-1-1H32.87a1,1,0,0,0,0,1.92H43.12A1,1,0,0,0,44.08,88.18ZM36.32,57a1.12,1.12,0,1,0-1.11,1.11A1.11,1.11,0,0,0,36.32,57Zm3.35,0a1.12,1.12,0,1,0-1.11,1.11A1.12,1.12,0,0,0,39.67,57ZM43,57a1.12,1.12,0,1,0-1.12,1.11A1.12,1.12,0,0,0,43,57Zm3.34,0a1.12,1.12,0,1,0-1.11,1.11A1.12,1.12,0,0,0,46.36,57Zm3.35,0a1.12,1.12,0,1,0-1.12,1.11A1.12,1.12,0,0,0,49.71,57Zm3.34,0a1.12,1.12,0,1,0-1.11,1.11A1.12,1.12,0,0,0,53.05,57ZM36.32,65.88A1.12,1.12,0,1,0,35.21,67,1.11,1.11,0,0,0,36.32,65.88Zm3.35,0A1.12,1.12,0,1,0,38.56,67,1.12,1.12,0,0,0,39.67,65.88Zm3.35,0A1.12,1.12,0,1,0,41.9,67,1.12,1.12,0,0,0,43,65.88Zm3.34,0A1.12,1.12,0,1,0,45.25,67,1.12,1.12,0,0,0,46.36,65.88Zm3.35,0A1.12,1.12,0,1,0,48.59,67,1.12,1.12,0,0,0,49.71,65.88Zm3.34,0A1.12,1.12,0,1,0,51.94,67,1.12,1.12,0,0,0,53.05,65.88ZM47.76,78.7a1.12,1.12,0,1,0-1.12,1.12A1.12,1.12,0,0,0,47.76,78.7Zm3.34,0A1.12,1.12,0,1,0,50,79.82,1.11,1.11,0,0,0,51.1,78.7Zm3.35,0a1.12,1.12,0,1,0-1.12,1.12A1.12,1.12,0,0,0,54.45,78.7Zm3.34,0a1.12,1.12,0,1,0-1.11,1.12A1.11,1.11,0,0,0,57.79,78.7Zm3.35,0A1.12,1.12,0,1,0,60,79.82,1.12,1.12,0,0,0,61.14,78.7Zm3.34,0a1.12,1.12,0,1,0-1.11,1.12A1.11,1.11,0,0,0,64.48,78.7ZM47.76,87.9A1.12,1.12,0,1,0,46.64,89,1.12,1.12,0,0,0,47.76,87.9Zm3.34,0A1.12,1.12,0,1,0,50,89,1.11,1.11,0,0,0,51.1,87.9Zm3.35,0A1.12,1.12,0,1,0,53.33,89,1.12,1.12,0,0,0,54.45,87.9Zm3.34,0A1.12,1.12,0,1,0,56.68,89,1.11,1.11,0,0,0,57.79,87.9Zm3.35,0A1.12,1.12,0,1,0,60,89,1.12,1.12,0,0,0,61.14,87.9Zm3.34,0A1.12,1.12,0,1,0,63.37,89,1.11,1.11,0,0,0,64.48,87.9Z" style="fill:#14B8A6"></path><path d="M16.25,94.48h-3.9a1,1,0,0,1,0-1.93h3.9a1,1,0,0,1,0,1.93Zm1,3.49a1,1,0,0,0-1-1h-3.9a1,1,0,0,0,0,1.93h3.9A1,1,0,0,0,17.21,98Zm0,4.47a1,1,0,0,0-1-1h-3.9a1,1,0,0,0,0,1.93h3.9A1,1,0,0,0,17.21,102.44Zm0,4.46a1,1,0,0,0-1-1h-3.9a1,1,0,0,0,0,1.93h3.9A1,1,0,0,0,17.21,106.9Zm0,4.46a1,1,0,0,0-1-1h-3.9a1,1,0,0,0,0,1.93h3.9A1,1,0,0,0,17.21,111.36Zm0,4.46a1,1,0,0,0-1-1h-3.9a1,1,0,0,0,0,1.93h3.9A1,1,0,0,0,17.21,115.82Zm0,4.46a1,1,0,0,0-1-1h-3.9a1,1,0,0,0,0,1.92h3.9A1,1,0,0,0,17.21,120.28Zm0,4.46a1,1,0,0,0-1-1h-3.9a1,1,0,1,0,0,1.92h3.9A1,1,0,0,0,17.21,124.74ZM31.82,93.51a1,1,0,0,0-1-1H20.61a1,1,0,0,0,0,1.93H30.85A1,1,0,0,0,31.82,93.51Zm0,4.46a1,1,0,0,0-1-1H20.61a1,1,0,0,0,0,1.93H30.85A1,1,0,0,0,31.82,98Zm0,4.47a1,1,0,0,0-1-1H20.61a1,1,0,0,0,0,1.93H30.85A1,1,0,0,0,31.82,102.44Zm0,4.46a1,1,0,0,0-1-1H20.61a1,1,0,0,0,0,1.93H30.85A1,1,0,0,0,31.82,106.9Zm0,4.46a1,1,0,0,0-1-1H20.61a1,1,0,0,0,0,1.93H30.85A1,1,0,0,0,31.82,111.36Zm12.26,4.46a1,1,0,0,0-1-1H32.87a1,1,0,0,0,0,1.93H43.12A1,1,0,0,0,44.08,115.82Zm0,4.46a1,1,0,0,0-1-1H32.87a1,1,0,0,0,0,1.92H43.12A1,1,0,0,0,44.08,120.28Zm0,4.46a1,1,0,0,0-1-1H32.87a1,1,0,1,0,0,1.92H43.12A1,1,0,0,0,44.08,124.74ZM36.32,93.51a1.12,1.12,0,1,0-1.11,1.12A1.11,1.11,0,0,0,36.32,93.51Zm3.35,0a1.12,1.12,0,1,0-1.11,1.12A1.11,1.11,0,0,0,39.67,93.51Zm3.35,0a1.12,1.12,0,1,0-1.12,1.12A1.12,1.12,0,0,0,43,93.51Zm3.34,0a1.12,1.12,0,1,0-1.11,1.12A1.11,1.11,0,0,0,46.36,93.51Zm3.35,0a1.12,1.12,0,1,0-1.12,1.12A1.12,1.12,0,0,0,49.71,93.51Zm3.34,0a1.12,1.12,0,1,0-1.11,1.12A1.11,1.11,0,0,0,53.05,93.51Zm-16.73,8.93a1.12,1.12,0,1,0-1.11,1.11A1.11,1.11,0,0,0,36.32,102.44Zm3.35,0a1.12,1.12,0,1,0-1.11,1.11A1.12,1.12,0,0,0,39.67,102.44Zm3.35,0a1.12,1.12,0,1,0-1.12,1.11A1.12,1.12,0,0,0,43,102.44Zm3.34,0a1.12,1.12,0,1,0-1.11,1.11A1.12,1.12,0,0,0,46.36,102.44Zm3.35,0a1.12,1.12,0,1,0-1.12,1.11A1.12,1.12,0,0,0,49.71,102.44Zm3.34,0a1.12,1.12,0,1,0-1.11,1.11A1.12,1.12,0,0,0,53.05,102.44Zm-5.29,12.82a1.12,1.12,0,1,0-1.12,1.12A1.12,1.12,0,0,0,47.76,115.26Zm3.34,0A1.12,1.12,0,1,0,50,116.38,1.12,1.12,0,0,0,51.1,115.26Zm3.35,0a1.12,1.12,0,1,0-1.12,1.12A1.12,1.12,0,0,0,54.45,115.26Zm3.34,0a1.12,1.12,0,1,0-1.11,1.12A1.12,1.12,0,0,0,57.79,115.26Zm3.35,0A1.12,1.12,0,1,0,60,116.38,1.12,1.12,0,0,0,61.14,115.26Zm3.34,0a1.12,1.12,0,1,0-1.11,1.12A1.12,1.12,0,0,0,64.48,115.26Zm-16.72,9.2a1.12,1.12,0,1,0-1.12,1.12A1.12,1.12,0,0,0,47.76,124.46Zm3.34,0A1.12,1.12,0,1,0,50,125.58,1.12,1.12,0,0,0,51.1,124.46Zm3.35,0a1.12,1.12,0,1,0-1.12,1.12A1.12,1.12,0,0,0,54.45,124.46Zm3.34,0a1.12,1.12,0,1,0-1.11,1.12A1.12,1.12,0,0,0,57.79,124.46Zm3.35,0A1.12,1.12,0,1,0,60,125.58,1.12,1.12,0,0,0,61.14,124.46Zm3.34,0a1.12,1.12,0,1,0-1.11,1.12A1.12,1.12,0,0,0,64.48,124.46Z" style="fill:#14B8A6"></path><path d="M76.18,22.22H72.27a1,1,0,1,1,0-1.92h3.91a1,1,0,1,1,0,1.92Zm1,3.5a1,1,0,0,0-1-1H72.27a1,1,0,0,0,0,1.92h3.91A1,1,0,0,0,77.14,25.72Zm0,4.46a1,1,0,0,0-1-1H72.27a1,1,0,0,0,0,1.93h3.91A1,1,0,0,0,77.14,30.18Zm0,4.46a1,1,0,0,0-1-1H72.27a1,1,0,0,0,0,1.93h3.91A1,1,0,0,0,77.14,34.64Zm0,4.46a1,1,0,0,0-1-1H72.27a1,1,0,0,0,0,1.93h3.91A1,1,0,0,0,77.14,39.1Zm0,4.47a1,1,0,0,0-1-1H72.27a1,1,0,0,0,0,1.93h3.91A1,1,0,0,0,77.14,43.57Zm0,4.46a1,1,0,0,0-1-1H72.27a1,1,0,0,0,0,1.93h3.91A1,1,0,0,0,77.14,48Zm0,4.46a1,1,0,0,0-1-1H72.27a1,1,0,0,0,0,1.93h3.91A1,1,0,0,0,77.14,52.49Zm14.6-31.23a1,1,0,0,0-1-1H80.53a1,1,0,1,0,0,1.92H90.78A1,1,0,0,0,91.74,21.26Zm0,4.46a1,1,0,0,0-1-1H80.53a1,1,0,1,0,0,1.92H90.78A1,1,0,0,0,91.74,25.72Zm0,4.46a1,1,0,0,0-1-1H80.53a1,1,0,0,0,0,1.93H90.78A1,1,0,0,0,91.74,30.18Zm0,4.46a1,1,0,0,0-1-1H80.53a1,1,0,0,0,0,1.93H90.78A1,1,0,0,0,91.74,34.64Zm0,4.46a1,1,0,0,0-1-1H80.53a1,1,0,0,0,0,1.93H90.78A1,1,0,0,0,91.74,39.1ZM104,43.57a1,1,0,0,0-1-1H92.8a1,1,0,0,0,0,1.93h10.25A1,1,0,0,0,104,43.57ZM104,48a1,1,0,0,0-1-1H92.8a1,1,0,0,0,0,1.93h10.25A1,1,0,0,0,104,48Zm0,4.46a1,1,0,0,0-1-1H92.8a1,1,0,0,0,0,1.93h10.25A1,1,0,0,0,104,52.49ZM96.25,21.26a1.12,1.12,0,1,0-1.12,1.12A1.12,1.12,0,0,0,96.25,21.26Zm3.35,0a1.12,1.12,0,1,0-1.12,1.12A1.12,1.12,0,0,0,99.6,21.26Zm3.34,0a1.12,1.12,0,1,0-1.11,1.12A1.11,1.11,0,0,0,102.94,21.26Zm3.35,0a1.12,1.12,0,1,0-1.12,1.12A1.12,1.12,0,0,0,106.29,21.26Zm3.34,0a1.12,1.12,0,1,0-1.11,1.12A1.11,1.11,0,0,0,109.63,21.26Zm3.35,0a1.12,1.12,0,1,0-1.12,1.12A1.12,1.12,0,0,0,113,21.26ZM96.25,30.18a1.12,1.12,0,1,0-1.12,1.12A1.12,1.12,0,0,0,96.25,30.18Zm3.35,0a1.12,1.12,0,1,0-1.12,1.12A1.12,1.12,0,0,0,99.6,30.18Zm3.34,0a1.12,1.12,0,1,0-1.11,1.12A1.11,1.11,0,0,0,102.94,30.18Zm3.35,0a1.12,1.12,0,1,0-1.12,1.12A1.12,1.12,0,0,0,106.29,30.18Zm3.34,0a1.12,1.12,0,1,0-1.11,1.12A1.11,1.11,0,0,0,109.63,30.18Zm3.35,0a1.12,1.12,0,1,0-1.12,1.12A1.12,1.12,0,0,0,113,30.18ZM107.68,43a1.12,1.12,0,1,0-1.11,1.11A1.12,1.12,0,0,0,107.68,43ZM111,43a1.12,1.12,0,1,0-1.12,1.11A1.12,1.12,0,0,0,111,43Zm3.34,0a1.12,1.12,0,1,0-1.11,1.11A1.12,1.12,0,0,0,114.37,43Zm3.35,0a1.12,1.12,0,1,0-1.12,1.11A1.12,1.12,0,0,0,117.72,43Zm3.34,0A1.12,1.12,0,1,0,120,44.12,1.12,1.12,0,0,0,121.06,43Zm3.35,0a1.12,1.12,0,1,0-1.12,1.11A1.12,1.12,0,0,0,124.41,43Zm-16.73,9.2a1.12,1.12,0,1,0-1.11,1.11A1.12,1.12,0,0,0,107.68,52.21Zm3.35,0a1.12,1.12,0,1,0-1.12,1.11A1.12,1.12,0,0,0,111,52.21Zm3.34,0a1.12,1.12,0,1,0-1.11,1.11A1.12,1.12,0,0,0,114.37,52.21Zm3.35,0a1.12,1.12,0,1,0-1.12,1.11A1.12,1.12,0,0,0,117.72,52.21Zm3.34,0A1.12,1.12,0,1,0,120,53.32,1.12,1.12,0,0,0,121.06,52.21Zm3.35,0a1.12,1.12,0,1,0-1.12,1.11A1.12,1.12,0,0,0,124.41,52.21Z" style="fill:#14B8A6"></path><path d="M76.18,58.78H72.27a1,1,0,1,1,0-1.92h3.91a1,1,0,0,1,0,1.92Zm1,3.5a1,1,0,0,0-1-1H72.27a1,1,0,1,0,0,1.92h3.91A1,1,0,0,0,77.14,62.28Zm0,4.46a1,1,0,0,0-1-1H72.27a1,1,0,0,0,0,1.92h3.91A1,1,0,0,0,77.14,66.74Zm0,4.46a1,1,0,0,0-1-1H72.27a1,1,0,0,0,0,1.92h3.91A1,1,0,0,0,77.14,71.2Zm0,4.46a1,1,0,0,0-1-1H72.27a1,1,0,0,0,0,1.92h3.91A1,1,0,0,0,77.14,75.66Zm0,4.46a1,1,0,0,0-1-1H72.27a1,1,0,0,0,0,1.93h3.91A1,1,0,0,0,77.14,80.12Zm0,4.46a1,1,0,0,0-1-1H72.27a1,1,0,0,0,0,1.93h3.91A1,1,0,0,0,77.14,84.58Zm0,4.46a1,1,0,0,0-1-1H72.27a1,1,0,0,0,0,1.93h3.91A1,1,0,0,0,77.14,89Zm14.6-31.22a1,1,0,0,0-1-1H80.53a1,1,0,0,0,0,1.92H90.78A1,1,0,0,0,91.74,57.82Zm0,4.46a1,1,0,0,0-1-1H80.53a1,1,0,0,0,0,1.92H90.78A1,1,0,0,0,91.74,62.28Zm0,4.46a1,1,0,0,0-1-1H80.53a1,1,0,0,0,0,1.92H90.78A1,1,0,0,0,91.74,66.74Zm0,4.46a1,1,0,0,0-1-1H80.53a1,1,0,1,0,0,1.92H90.78A1,1,0,0,0,91.74,71.2Zm0,4.46a1,1,0,0,0-1-1H80.53a1,1,0,1,0,0,1.92H90.78A1,1,0,0,0,91.74,75.66ZM104,80.12a1,1,0,0,0-1-1H92.8a1,1,0,0,0,0,1.93h10.25A1,1,0,0,0,104,80.12Zm0,4.46a1,1,0,0,0-1-1H92.8a1,1,0,0,0,0,1.93h10.25A1,1,0,0,0,104,84.58ZM104,89a1,1,0,0,0-1-1H92.8a1,1,0,0,0,0,1.93h10.25A1,1,0,0,0,104,89ZM96.25,57.82a1.12,1.12,0,1,0-1.12,1.11A1.12,1.12,0,0,0,96.25,57.82Zm3.35,0a1.12,1.12,0,1,0-1.12,1.11A1.12,1.12,0,0,0,99.6,57.82Zm3.34,0a1.12,1.12,0,1,0-1.11,1.11A1.12,1.12,0,0,0,102.94,57.82Zm3.35,0a1.12,1.12,0,1,0-1.12,1.11A1.12,1.12,0,0,0,106.29,57.82Zm3.34,0a1.12,1.12,0,1,0-1.11,1.11A1.12,1.12,0,0,0,109.63,57.82Zm3.35,0a1.12,1.12,0,1,0-1.12,1.11A1.12,1.12,0,0,0,113,57.82ZM96.25,66.74a1.12,1.12,0,1,0-1.12,1.12A1.12,1.12,0,0,0,96.25,66.74Zm3.35,0a1.12,1.12,0,1,0-1.12,1.12A1.12,1.12,0,0,0,99.6,66.74Zm3.34,0a1.12,1.12,0,1,0-1.11,1.12A1.12,1.12,0,0,0,102.94,66.74Zm3.35,0a1.12,1.12,0,1,0-1.12,1.12A1.12,1.12,0,0,0,106.29,66.74Zm3.34,0a1.12,1.12,0,1,0-1.11,1.12A1.12,1.12,0,0,0,109.63,66.74Zm3.35,0a1.12,1.12,0,1,0-1.12,1.12A1.12,1.12,0,0,0,113,66.74Zm-5.3,12.82a1.12,1.12,0,1,0-1.11,1.12A1.11,1.11,0,0,0,107.68,79.56Zm3.35,0a1.12,1.12,0,1,0-1.12,1.12A1.12,1.12,0,0,0,111,79.56Zm3.34,0a1.12,1.12,0,1,0-1.11,1.12A1.11,1.11,0,0,0,114.37,79.56Zm3.35,0a1.12,1.12,0,1,0-1.12,1.12A1.12,1.12,0,0,0,117.72,79.56Zm3.34,0A1.12,1.12,0,1,0,120,80.68,1.11,1.11,0,0,0,121.06,79.56Zm3.35,0a1.12,1.12,0,1,0-1.12,1.12A1.12,1.12,0,0,0,124.41,79.56Zm-16.73,9.2a1.12,1.12,0,1,0-1.11,1.12A1.11,1.11,0,0,0,107.68,88.76Zm3.35,0a1.12,1.12,0,1,0-1.12,1.12A1.12,1.12,0,0,0,111,88.76Zm3.34,0a1.12,1.12,0,1,0-1.11,1.12A1.11,1.11,0,0,0,114.37,88.76Zm3.35,0a1.12,1.12,0,1,0-1.12,1.12A1.12,1.12,0,0,0,117.72,88.76Zm3.34,0A1.12,1.12,0,1,0,120,89.88,1.11,1.11,0,0,0,121.06,88.76Zm3.35,0a1.12,1.12,0,1,0-1.12,1.12A1.12,1.12,0,0,0,124.41,88.76Z" style="fill:#14B8A6"></path></g><g id="freepik--Profile--inject-90"><rect x="373.68" y="428.7" width="111.18" height="38.98" style="fill:#14B8A6;stroke:#263238;stroke-linecap:round;stroke-linejoin:round"></rect><circle cx="392.39" cy="447.41" r="12.9" transform="translate(-91.85 101.49) rotate(-13.21)" style="fill:#263238;stroke:#263238;stroke-linecap:round;stroke-linejoin:round"></circle><path d="M397.36,443.05a5,5,0,1,0-5,5A5,5,0,0,0,397.36,443.05Z" style="fill:#fff;stroke:#263238;stroke-linecap:round;stroke-linejoin:round"></path><path d="M392.39,449a8.21,8.21,0,0,0-8.22,8.21c0,.06,0,.12,0,.18a12.89,12.89,0,0,0,16.41,0c0-.06,0-.12,0-.18A8.21,8.21,0,0,0,392.39,449Z" style="fill:#fff;stroke:#263238;stroke-linecap:round;stroke-linejoin:round"></path><line x1="416.55" y1="440.68" x2="448.3" y2="440.68" style="fill:none;stroke:#263238;stroke-linecap:round;stroke-linejoin:round"></line><line x1="416.55" y1="448.28" x2="476.6" y2="448.28" style="fill:none;stroke:#263238;stroke-linecap:round;stroke-linejoin:round"></line><line x1="416.55" y1="457.44" x2="476.6" y2="457.44" style="fill:none;stroke:#263238;stroke-linecap:round;stroke-linejoin:round"></line></g><g id="freepik--Envelope--inject-90"><rect x="403.03" y="389.6" width="44.59" height="26.96" style="fill:#fff;stroke:#263238;stroke-linecap:round;stroke-linejoin:round"></rect><polyline points="403.03 389.6 425.32 404.65 447.62 389.6" style="fill:none;stroke:#263238;stroke-linecap:round;stroke-linejoin:round"></polyline></g><g id="freepik--Video--inject-90"><rect x="437.08" y="330.95" width="45.68" height="43.68" rx="5.34" style="fill:#14B8A6;stroke:#263238;stroke-linecap:round;stroke-linejoin:round"></rect><polygon points="470.64 352.02 452.65 341.64 452.65 362.41 470.64 352.02" style="fill:#fff;stroke:#263238;stroke-linecap:round;stroke-linejoin:round"></polygon></g><g id="freepik--Image--inject-90"><rect x="371.51" y="330.95" width="45.68" height="43.68" rx="5.34" style="fill:#263238;stroke:#263238;stroke-linecap:round;stroke-linejoin:round"></rect><polygon points="378.39 367.1 411.15 367.1 399.13 343.97 391.24 360.03 386.1 352.32 378.39 367.1" style="fill:#fff;stroke:#263238;stroke-linecap:round;stroke-linejoin:round"></polygon><path d="M392.69,341.76a6.13,6.13,0,1,0-6.13,6.13A6.12,6.12,0,0,0,392.69,341.76Z" style="fill:#fff;stroke:#263238;stroke-linecap:round;stroke-linejoin:round"></path></g><g id="freepik--Cart--inject-90"><path d="M450.62,269.84a2.53,2.53,0,0,0-2-1H406v0a12,12,0,0,0-11.53-8.57H388a2.57,2.57,0,0,0,0,5.13h6.42a6.87,6.87,0,0,1,6.63,4.92l7.69,25.55a2.56,2.56,0,0,0,2.45,1.82H443a2.57,2.57,0,0,0,2.5-2L451.11,272A2.55,2.55,0,0,0,450.62,269.84Zm-40.88,11.55h33.88l-.77,3.27H410.73Zm35.63-7.4-.71,3H408.42l-.9-3Zm-32.26,18.57-1.06-3.51h29.76l-.83,3.51Z" style="fill:#14B8A6;stroke:#263238;stroke-linecap:round;stroke-linejoin:round"></path><path d="M417.54,300.87a4.92,4.92,0,1,0,4.92,4.92A4.93,4.93,0,0,0,417.54,300.87Z" style="fill:#14B8A6;stroke:#263238;stroke-linecap:round;stroke-linejoin:round"></path><path d="M434.73,300.87a4.92,4.92,0,1,0,4.91,4.92A4.93,4.93,0,0,0,434.73,300.87Z" style="fill:#14B8A6;stroke:#263238;stroke-linecap:round;stroke-linejoin:round"></path></g><g id="freepik--Pointer--inject-90"><path d="M460.51,301.4,439.26,292A1.76,1.76,0,0,0,437,294l7.52,22a1.76,1.76,0,0,0,2.9.92l3.08-2.82,6.05,6.61a1.37,1.37,0,0,0,1.95.09l5.54-5.06a1.38,1.38,0,0,0,.08-1.95l-6-6.62,3.08-2.81A1.76,1.76,0,0,0,460.51,301.4Z" style="fill:#272069;stroke:#272069;stroke-miterlimit:10"></path><path d="M459.93,298.48,438.67,289a1.76,1.76,0,0,0-2.24,2.06l7.51,22a1.77,1.77,0,0,0,2.91.92l3.08-2.82,6,6.61a1.4,1.4,0,0,0,2,.09l5.53-5.07a1.38,1.38,0,0,0,.09-1.95l-6.05-6.61,3.08-2.82A1.75,1.75,0,0,0,459.93,298.48Z" style="fill:#fff;stroke:#272069;stroke-miterlimit:10"></path></g><g id="freepik--Button--inject-90"><path d="M460.62,67.42H419a16,16,0,0,1-16-16h0a16,16,0,0,1,16-16h41.58a16,16,0,0,1,16,16h0A16,16,0,0,1,460.62,67.42Z" style="fill:#14B8A6;stroke:#263238;stroke-miterlimit:10"></path><circle cx="418.56" cy="51.38" r="14.26" style="fill:#fff;stroke:#263238;stroke-linecap:round;stroke-linejoin:round"></circle></g><g id="freepik--Frames--inject-90"><rect x="31.56" y="332.24" width="107.91" height="82.56" style="fill:#fff;stroke:#263238;stroke-linecap:round;stroke-linejoin:round"></rect><line x1="31.56" y1="414.8" x2="139.47" y2="332.24" style="fill:none;stroke:#263238;stroke-linecap:round;stroke-linejoin:round"></line><line x1="31.56" y1="332.24" x2="139.47" y2="414.8" style="fill:none;stroke:#263238;stroke-linecap:round;stroke-linejoin:round"></line><rect x="77.14" y="429.56" width="62.33" height="42.7" style="fill:#fff;stroke:#263238;stroke-linecap:round;stroke-linejoin:round"></rect><line x1="77.14" y1="472.27" x2="139.47" y2="429.56" style="fill:none;stroke:#263238;stroke-linecap:round;stroke-linejoin:round"></line><line x1="77.14" y1="429.56" x2="139.47" y2="472.27" style="fill:none;stroke:#263238;stroke-linecap:round;stroke-linejoin:round"></line></g><g id="freepik--Bars--inject-90"><path d="M135.92,308.89H35.37a2.9,2.9,0,0,1-2.9-2.9h0a2.9,2.9,0,0,1,2.9-2.9H135.92a2.9,2.9,0,0,1,2.9,2.9h0A2.9,2.9,0,0,1,135.92,308.89Z" style="fill:#14B8A6;stroke:#263238;stroke-linecap:round;stroke-linejoin:round"></path><circle cx="121.41" cy="305.99" r="6.9" style="fill:#fff;stroke:#263238;stroke-linecap:round;stroke-linejoin:round"></circle><path d="M135.92,288.45H35.37a2.9,2.9,0,0,1-2.9-2.9h0a2.9,2.9,0,0,1,2.9-2.9H135.92a2.9,2.9,0,0,1,2.9,2.9h0A2.9,2.9,0,0,1,135.92,288.45Z" style="fill:#14B8A6;stroke:#263238;stroke-linecap:round;stroke-linejoin:round"></path><circle cx="73.09" cy="285.55" r="6.9" style="fill:#fff;stroke:#263238;stroke-linecap:round;stroke-linejoin:round"></circle><path d="M135.92,268H35.37a2.9,2.9,0,0,1-2.9-2.9h0a2.9,2.9,0,0,1,2.9-2.9H135.92a2.9,2.9,0,0,1,2.9,2.9h0A2.9,2.9,0,0,1,135.92,268Z" style="fill:#14B8A6;stroke:#263238;stroke-linecap:round;stroke-linejoin:round"></path><path d="M101.56,265.12a6.9,6.9,0,1,0-6.9,6.9A6.9,6.9,0,0,0,101.56,265.12Z" style="fill:#fff;stroke:#263238;stroke-linecap:round;stroke-linejoin:round"></path></g><g id="freepik--Icon--inject-90"><path d="M81.43,62.48l-16-11.25V44.82l16-11.24v7L71.18,48l10.25,7.41Z" style="fill:#263238"></path><path d="M86.58,67,99.3,24.43H104L91.2,67Z" style="fill:#263238"></path><path d="M109,62.48v-7L119.27,48,109,40.62v-7l16,11.24v6.41Z" style="fill:#263238"></path></g><g id="freepik--Robot--inject-90"><line x1="296.24" y1="273.18" x2="330.6" y2="309.89" style="fill:none;stroke:#263238;stroke-linecap:round;stroke-linejoin:round;stroke-width:7px"></line><path d="M361.59,244.8s.75-6.42,4.29-8.58c7.75-4.72,14-1.95,16.37-3.12s7.41-5.06,9.36-3.11-1.56,5.45-1.56,5.45c-.84.85,10.79,2.08,13.64,0,1-.72,5.85-5.45,7.8-3.12s-1.56,9.36-1.56,9.36-4.29,4.68-8.57,6.63-9.75,3.51-14,3.51S374,250,374,250s-2.25,7.48-11,3.18C357.14,250.35,361.59,244.8,361.59,244.8Z" style="fill:#263238;stroke:#263238;stroke-linecap:round;stroke-linejoin:round"></path><path d="M371.06,244.58s5.09-4.07,8.57-4.07,13.38,2.61,14.25,2.9a40.27,40.27,0,0,0,5.24.44s6.83-6,9-6.25,1.69,1.44,1.75,2.76" style="fill:none;stroke:#919191;stroke-linecap:round;stroke-linejoin:round"></path><path d="M401.44,239.34s6.69-5.23,8.73-5.09a1.73,1.73,0,0,1,1.6,2.19" style="fill:none;stroke:#919191;stroke-linecap:round;stroke-linejoin:round"></path><path d="M390.05,235.44s-1.84,0-3.58-.17-4.07-.43-4.07-.43" style="fill:none;stroke:#919191;stroke-linecap:round;stroke-linejoin:round"></path><path d="M344.41,316.65a5.58,5.58,0,1,0-5.58,5.58A5.58,5.58,0,0,0,344.41,316.65Z" style="fill:#263238;stroke:#263238;stroke-miterlimit:10"></path><line x1="362.33" y1="258.78" x2="342.35" y2="307.25" style="fill:none;stroke:#263238;stroke-linecap:round;stroke-linejoin:round;stroke-width:7px"></line><line x1="215.94" y1="273.18" x2="181.58" y2="309.89" style="fill:none;stroke:#263238;stroke-linecap:round;stroke-linejoin:round;stroke-width:7px"></line><path d="M150.59,244.8s-.75-6.42-4.29-8.58c-7.75-4.72-14-1.95-16.37-3.12s-7.41-5.06-9.36-3.11,1.56,5.45,1.56,5.45c.84.85-10.79,2.08-13.64,0-1-.72-5.85-5.45-7.8-3.12s1.56,9.36,1.56,9.36,4.29,4.68,8.58,6.63,9.74,3.51,14,3.51S138.18,250,138.18,250s2.24,7.48,11,3.18C155,250.35,150.59,244.8,150.59,244.8Z" style="fill:#263238;stroke:#263238;stroke-linecap:round;stroke-linejoin:round"></path><path d="M141.12,244.58s-5.08-4.07-8.57-4.07-13.38,2.61-14.25,2.9a40.27,40.27,0,0,1-5.24.44s-6.83-6-9-6.25-1.69,1.44-1.75,2.76" style="fill:none;stroke:#919191;stroke-linecap:round;stroke-linejoin:round"></path><path d="M110.74,239.34s-6.69-5.23-8.73-5.09a1.73,1.73,0,0,0-1.6,2.19" style="fill:none;stroke:#919191;stroke-linecap:round;stroke-linejoin:round"></path><path d="M122.13,235.44s1.84,0,3.58-.17,4.07-.43,4.07-.43" style="fill:none;stroke:#919191;stroke-linecap:round;stroke-linejoin:round"></path><circle cx="173.35" cy="316.65" r="5.58" style="fill:#263238;stroke:#263238;stroke-miterlimit:10"></circle><line x1="149.85" y1="258.78" x2="169.83" y2="307.25" style="fill:none;stroke:#263238;stroke-linecap:round;stroke-linejoin:round;stroke-width:7px"></line><path d="M289.31,282.46l-10.88-10.07L272,278.68a32.9,32.9,0,0,0-9.6-3.69l-.85-9.2-14.82.58-.12,9a33.07,33.07,0,0,0-9.41,4.17l-7.1-5.9L220,284.55l6.3,6.48a33.21,33.21,0,0,0-3.7,9.6l-9.2.85L214,316.3l9,.12a33.07,33.07,0,0,0,4.17,9.41l-5.9,7.1L232.15,343l6.47-6.29a33.64,33.64,0,0,0,9.61,3.69l.84,9.2,14.82-.58.13-9a33.07,33.07,0,0,0,9.41-4.17l7.09,5.9,10.07-10.89-6.29-6.47a33,33,0,0,0,3.69-9.6l9.2-.85-.58-14.82-9-.12a33.31,33.31,0,0,0-4.18-9.42Zm-17.39,40.62a22.66,22.66,0,1,1-1.25-32A22.66,22.66,0,0,1,271.92,323.08Z" style="fill:#263238;stroke:#263238;stroke-miterlimit:10"></path><circle cx="296.37" cy="272.51" r="21.51" transform="translate(-98.99 196.44) rotate(-31.71)" style="fill:#263238;stroke:#263238;stroke-miterlimit:10"></circle><path d="M312.42,263.11l-4.27-4.91L305,260.64a14.48,14.48,0,0,0-4-2.07l.07-4.06-6.49-.45L294.1,258a14.48,14.48,0,0,0-4.3,1.37L287,256.46l-4.91,4.27,2.44,3.12a14.48,14.48,0,0,0-2.07,4l-4.06-.07-.45,6.49,3.93.49a14.78,14.78,0,0,0,1.37,4.3l-2.91,2.82,4.27,4.91,3.13-2.44a14.42,14.42,0,0,0,4,2.07l-.07,4.06,6.5.45.48-3.93a14.84,14.84,0,0,0,4.31-1.37l2.82,2.91,4.91-4.27-2.44-3.13a14.42,14.42,0,0,0,2.07-4l4.06.07.45-6.5-3.94-.48a14.54,14.54,0,0,0-1.37-4.31ZM302.9,280a9.94,9.94,0,1,1,1-14A9.93,9.93,0,0,1,302.9,280Z" style="fill:#fff;stroke:#263238;stroke-linecap:round;stroke-linejoin:round"></path><circle cx="214.54" cy="272.51" r="21.51" transform="translate(-88.16 441.8) rotate(-81)" style="fill:#263238;stroke:#263238;stroke-miterlimit:10"></circle><path d="M198.49,263.11l4.27-4.91,3.12,2.44a14.62,14.62,0,0,1,4-2.07l-.07-4.06,6.5-.45.48,3.94a14.63,14.63,0,0,1,4.31,1.37l2.81-2.91,4.92,4.27-2.44,3.12a14.75,14.75,0,0,1,2.07,4l4.05-.07.46,6.49-3.94.49a14.48,14.48,0,0,1-1.37,4.3l2.91,2.82-4.27,4.91-3.12-2.44a14.62,14.62,0,0,1-4,2.07l.07,4.06-6.5.45-.48-3.93a14.93,14.93,0,0,1-4.31-1.37l-2.81,2.91-4.92-4.27,2.44-3.13a14.42,14.42,0,0,1-2.07-4l-4,.07-.46-6.5,3.94-.48a14.54,14.54,0,0,1,1.37-4.31ZM208,280a9.95,9.95,0,1,0-1-14A9.95,9.95,0,0,0,208,280Z" style="fill:#fff;stroke:#263238;stroke-linecap:round;stroke-linejoin:round"></path><rect x="228.13" y="156.14" width="54.31" height="68.02" rx="10.12" style="fill:#14B8A6;stroke:#263238;stroke-miterlimit:10"></rect><path d="M248.14,182.71c0,3.2-1.33,5.8-3,5.8s-3-2.6-3-5.8,1.33-5.81,3-5.81S248.14,179.5,248.14,182.71Z" style="fill:#263238"></path><path d="M269.28,182.71c0,3.2-1.33,5.8-3,5.8s-3-2.6-3-5.8,1.34-5.81,3-5.81S269.28,179.5,269.28,182.71Z" style="fill:#263238"></path><path d="M236.91,193.6a20,20,0,0,0,36.76,0" style="fill:none;stroke:#263238;stroke-linecap:round;stroke-linejoin:round"></path><rect x="209.82" y="235.09" width="90.94" height="85.8" rx="4.73" style="fill:#14B8A6;stroke:#263238;stroke-miterlimit:10"></rect><polygon points="280.76 277.99 236.83 252.62 236.83 303.35 280.76 277.99" style="fill:#263238;stroke:#263238;stroke-miterlimit:10"></polygon><path d="M301.9,384.47,295.67,369l-9.58,3.3a37.51,37.51,0,0,0-8-8.35l3.54-9.74-15.31-6.51-4.45,9.1a37.53,37.53,0,0,0-11.55-.27L246,347.18l-15.43,6.23,3.29,9.58a37.23,37.23,0,0,0-8.34,8l-9.74-3.55-6.51,15.32,9.1,4.45a37.52,37.52,0,0,0-.27,11.55l-9.38,4.37,6.23,15.43,9.58-3.29a37.06,37.06,0,0,0,8,8.35l-3.55,9.74,15.32,6.51,4.45-9.11a37.15,37.15,0,0,0,11.54.27l4.38,9.39L280,434.17l-3.29-9.58a37.28,37.28,0,0,0,8.35-8l9.74,3.54,6.51-15.31-9.11-4.45a37.22,37.22,0,0,0,.27-11.55Zm-37.1,32.89a25.42,25.42,0,1,1,14.06-33.09A25.41,25.41,0,0,1,264.8,417.36Z" style="fill:#263238;stroke:#263238;stroke-miterlimit:10"></path></g><g id="freepik--UX--inject-90"><rect x="314.74" y="79.24" width="167.46" height="138.4" rx="9.94" style="fill:#263238;stroke:#263238;stroke-linecap:round;stroke-linejoin:round"></rect><path d="M363.75,203.3q-11.47,0-17.84-4.21a21.48,21.48,0,0,1-8.8-12,63.15,63.15,0,0,1-2.42-18.61V98.64h18.36v72a62.51,62.51,0,0,0,.63,9.12,12.78,12.78,0,0,0,3,6.88q2.35,2.63,7.07,2.62,5,0,7.2-2.62a13.79,13.79,0,0,0,2.94-6.88,57.13,57.13,0,0,0,.7-9.12v-72h18.23V168.5a62.8,62.8,0,0,1-2.43,18.61,21.56,21.56,0,0,1-8.73,12Q375.36,203.31,363.75,203.3Z" style="fill:#14B8A6"></path><path d="M401.1,201.9l20.78-54.82L401.74,98.64h17.59l13.38,32,11.73-32h16.32l-19.89,52,21.42,51.25H444.7L430,167.22,417.29,201.9Z" style="fill:#14B8A6"></path></g><g id="freepik--UI--inject-90"><rect x="31.56" y="79.24" width="167.46" height="138.4" rx="9.94" style="fill:#14B8A6;stroke:#263238;stroke-miterlimit:10"></rect><path d="M98.33,203.3q-11.46,0-17.84-4.21a21.53,21.53,0,0,1-8.8-12,63.15,63.15,0,0,1-2.42-18.61V98.64H87.63v72a62.51,62.51,0,0,0,.63,9.12,12.86,12.86,0,0,0,3,6.88q2.35,2.63,7.07,2.62,5,0,7.21-2.62a13.87,13.87,0,0,0,2.93-6.88,57.13,57.13,0,0,0,.7-9.12v-72H127.4V168.5A63.15,63.15,0,0,1,125,187.11a21.62,21.62,0,0,1-8.74,12Q109.94,203.31,98.33,203.3Z" style="fill:#263238"></path><path d="M142.69,201.9V98.64h18.62V201.9Z" style="fill:#263238"></path></g></svg>
